<?xml version="1.0" standalone="no"?>
<!DOCTYPE svg PUBLIC "-//W3C//DTD SVG 20010904//EN"
 "http://www.w3.org/TR/2001/REC-SVG-20010904/DTD/svg10.dtd">
<svg version="1.0" xmlns="http://www.w3.org/2000/svg"
 width="300.000000pt" height="300.000000pt" viewBox="0 0 300.000000 300.000000"
 preserveAspectRatio="xMidYMid meet">
<metadata>
Created by potrace 1.11, written by Peter Selinger 2001-2013
</metadata>
<g transform="translate(0.000000,300.000000) scale(0.100000,-0.100000)"
fill="#000000" stroke="none">
<path d="M1325 2979 c-22 -4 -58 -10 -80 -13 -311 -49 -648 -247 -853 -501
-32 -38 -60 -71 -64 -73 -5 -2 -8 -7 -8 -12 0 -4 -16 -32 -36 -61 -53 -79 -94
-166 -150 -314 -4 -11 -8 -24 -10 -30 -1 -5 -10 -37 -19 -70 -9 -33 -18 -73
-20 -90 -3 -16 -7 -41 -10 -55 -15 -75 -23 -269 -11 -288 4 -7 3 -12 -2 -12
-5 0 -9 -7 -9 -15 0 -8 3 -15 6 -15 3 0 7 -18 8 -40 3 -43 7 -69 18 -114 6
-23 5 -27 -6 -21 -8 5 -7 0 4 -12 9 -11 17 -27 17 -37 0 -9 5 -27 11 -38 8
-15 8 -19 -1 -13 -6 4 -2 -12 10 -35 12 -23 19 -48 16 -56 -4 -10 -2 -12 6 -8
8 5 9 2 5 -9 -3 -10 -2 -17 4 -17 6 0 8 -9 4 -21 -5 -15 -4 -19 4 -15 10 7 15
-8 14 -41 -1 -7 3 -11 7 -8 14 9 21 -27 8 -44 -11 -14 -11 -14 3 -3 14 10 18
10 23 -4 3 -9 3 -21 -1 -26 -3 -7 -1 -8 6 -4 7 5 15 -4 22 -23 6 -17 15 -31
20 -31 5 0 9 -5 9 -10 0 -12 41 -73 53 -78 4 -2 7 -9 7 -15 0 -7 11 -25 25
-40 14 -15 23 -27 20 -27 -3 0 12 -17 35 -37 22 -20 40 -42 40 -48 0 -5 13
-19 30 -30 22 -15 28 -25 24 -40 -4 -16 -3 -17 5 -5 8 12 15 10 40 -14 17 -16
27 -34 24 -40 -3 -6 -3 -8 2 -4 11 11 47 -11 39 -24 -4 -7 -3 -8 4 -4 7 4 23
-4 37 -18 14 -14 29 -26 33 -26 4 0 7 -4 7 -9 0 -5 4 -13 9 -18 5 -5 6 -3 2 5
-12 21 7 13 69 -27 33 -22 63 -37 67 -35 5 3 8 0 8 -5 0 -6 4 -11 9 -11 5 0
25 -7 46 -15 32 -14 35 -18 23 -33 -12 -15 -11 -16 4 -4 14 11 23 11 55 0 21
-7 41 -17 44 -21 3 -5 8 -7 10 -6 9 8 125 -26 132 -38 4 -7 13 -13 20 -13 7 0
6 4 -3 10 -14 10 -7 9 70 -5 8 -1 14 -10 12 -19 -2 -9 2 -16 8 -16 5 0 9 6 8
13 -4 15 126 11 156 -5 13 -7 16 -7 12 1 -4 6 -3 11 3 11 5 0 12 -6 14 -12 4
-9 8 -9 14 -3 9 11 75 16 68 5 -2 -4 2 -7 10 -7 8 0 12 4 10 8 -3 4 24 7 59 6
35 -1 62 1 59 6 -2 4 4 8 14 8 40 3 73 8 109 18 20 6 41 8 46 5 4 -3 8 -1 8 4
0 5 6 9 13 9 20 0 181 57 188 67 4 5 14 6 24 3 10 -5 14 -3 9 5 -5 8 2 9 22 4
17 -4 24 -3 16 2 -9 6 -5 12 15 22 16 8 48 28 72 44 24 16 41 25 38 19 -3 -5
0 -10 7 -10 8 0 12 7 8 15 -3 10 -1 13 6 8 7 -4 12 -2 12 3 0 6 5 11 11 11 5
0 7 -4 4 -10 -3 -6 1 -7 10 -3 11 4 13 8 5 13 -8 5 -7 10 4 19 8 7 21 9 27 5
7 -4 9 -3 6 3 -9 14 29 47 43 38 6 -3 9 -2 8 3 -4 14 47 59 61 54 6 -2 10 0 9
6 -2 5 12 24 29 41 18 17 30 31 26 31 -4 0 2 6 12 14 11 8 24 12 29 9 5 -4 6
-1 3 4 -4 6 3 23 14 37 18 23 23 25 38 14 14 -12 14 -11 3 4 -12 15 -8 25 31
76 25 32 56 78 70 102 14 25 31 44 37 42 6 -1 9 2 6 7 -8 12 23 91 36 91 5 0
7 3 4 8 -2 4 3 23 12 42 17 38 19 45 21 61 0 5 5 8 10 5 5 -4 7 4 3 16 -4 17
-2 20 11 15 14 -5 15 -3 4 14 -8 13 -9 22 -2 27 6 4 11 16 12 27 1 20 5 39 20
100 10 40 10 44 12 83 1 24 5 31 14 26 9 -6 9 -4 1 7 -7 9 -9 35 -5 69 9 81 2
246 -14 325 -36 185 -60 257 -135 410 -153 315 -418 562 -743 696 -93 38 -213
73 -290 84 -23 4 -61 10 -84 14 -52 10 -294 10 -348 0z"/>
<path d="M260 766 c0 -2 8 -10 18 -17 15 -13 16 -12 3 4 -13 16 -21 21 -21 13z"/>
<path d="M2676 702 c-3 -5 1 -9 9 -9 8 0 12 4 9 9 -3 4 -7 8 -9 8 -2 0 -6 -4
-9 -8z"/>
<path d="M333 655 c0 -8 4 -12 9 -9 5 3 6 10 3 15 -9 13 -12 11 -12 -6z"/>
<path d="M2655 659 c-3 -4 2 -6 10 -5 21 3 28 13 10 13 -9 0 -18 -4 -20 -8z"/>
<path d="M536 447 c3 -10 9 -15 12 -12 3 3 0 11 -7 18 -10 9 -11 8 -5 -6z"/>
<path d="M576 398 c3 -5 10 -6 15 -3 13 9 11 12 -6 12 -8 0 -12 -4 -9 -9z"/>
<path d="M756 287 c3 -10 9 -15 12 -12 3 3 0 11 -7 18 -10 9 -11 8 -5 -6z"/>
<path d="M830 226 c0 -2 7 -7 16 -10 8 -3 12 -2 9 4 -6 10 -25 14 -25 6z"/>
<path d="M873 205 c0 -8 4 -12 9 -9 5 3 6 10 3 15 -9 13 -12 11 -12 -6z"/>
<path d="M950 186 c0 -2 7 -7 16 -10 8 -3 12 -2 9 4 -6 10 -25 14 -25 6z"/>
<path d="M1966 165 c-18 -14 -18 -14 1 -12 11 0 20 7 20 14 0 7 -1 13 -1 13
-1 0 -9 -7 -20 -15z"/>
<path d="M2019 168 c15 -21 31 -23 31 -6 0 6 -3 8 -7 5 -3 -4 -13 -1 -22 6
-14 11 -14 10 -2 -5z"/>
<path d="M1056 152 c-2 -4 4 -8 14 -8 10 0 16 4 14 8 -3 4 -9 8 -14 8 -5 0
-11 -4 -14 -8z"/>
<path d="M1833 115 c0 -8 4 -12 9 -9 4 3 8 9 8 15 0 5 -4 9 -8 9 -5 0 -9 -7
-9 -15z"/>
<path d="M1713 96 c1 -6 -4 -10 -11 -8 -8 1 -11 -2 -7 -8 5 -8 13 -6 26 6 23
21 23 21 5 21 -8 0 -14 -5 -13 -11z"/>
<path d="M1368 93 c-10 -2 -18 -9 -18 -14 0 -6 8 -5 20 1 11 6 20 13 20 15 0
3 -1 4 -2 4 -2 -1 -11 -3 -20 -6z"/>
<path d="M1410 96 c0 -2 8 -10 18 -17 15 -13 16 -12 3 4 -13 16 -21 21 -21 13z"/>
<path d="M1634 86 c1 -8 5 -18 8 -22 4 -3 5 1 4 10 -1 8 -5 18 -8 22 -4 3 -5
-1 -4 -10z"/>
<path d="M1510 81 c0 -6 4 -12 8 -15 5 -3 9 1 9 9 0 8 -4 15 -9 15 -4 0 -8 -4
-8 -9z"/>
<path d="M1390 71 c0 -6 4 -13 10 -16 6 -3 7 1 4 9 -7 18 -14 21 -14 7z"/>
</g>
</svg>
